<svg id="圖層_1" data-name="圖層 1" xmlns="http://www.w3.org/2000/svg" viewBox="0 0 720 405.07"><defs><style>.cls-1{fill:#fff;}.cls-2,.cls-24,.cls-26{fill:#efefef;}.cls-3,.cls-35,.cls-36{fill:#b5b5b6;}.cls-4,.cls-44,.cls-45,.cls-46,.cls-62,.cls-63{fill:#595757;}.cls-5,.cls-52,.cls-55,.cls-56{fill:#3e3a39;}.cls-6{font-size:8.58px;}.cls-20,.cls-22,.cls-57,.cls-6{fill:#231815;}.cls-20,.cls-57,.cls-6{font-family:Roboto-Light, Roboto;}.cls-7{letter-spacing:-0.01em;}.cls-8{letter-spacing:0em;}.cls-9{letter-spacing:-0.01em;}.cls-10{font-size:5.15px;}.cls-11{letter-spacing:-0.01em;}.cls-12{letter-spacing:0em;}.cls-13{letter-spacing:0.02em;}.cls-14{letter-spacing:-0.01em;}.cls-15{font-size:6px;}.cls-16{letter-spacing:-0.01em;}.cls-17{letter-spacing:0.02em;}.cls-18{letter-spacing:0.02em;}.cls-19{letter-spacing:-0.01em;}.cls-20,.cls-27{font-size:6.86px;}.cls-21{font-size:10.43px;fill:#7a6a56;font-family:AdobeMingStd-Light-B5pc-H, Adobe Ming Std;}.cls-23,.cls-27,.cls-53,.cls-59,.cls-60,.cls-61{fill:#51ba9b;}.cls-24,.cls-35,.cls-44,.cls-45,.cls-46,.cls-55,.cls-63{stroke:#fff;}.cls-24,.cls-26,.cls-35,.cls-36,.cls-44,.cls-45,.cls-46,.cls-48,.cls-52,.cls-55,.cls-56,.cls-62,.cls-63{stroke-miterlimit:10;}.cls-24,.cls-35,.cls-46{stroke-width:0.86px;}.cls-25{letter-spacing:-0.01em;}.cls-26,.cls-36,.cls-48,.cls-52,.cls-56,.cls-62{stroke:#51ba9b;}.cls-27,.cls-53,.cls-59,.cls-60,.cls-61{font-family:Roboto-Bold, Roboto;font-weight:700;}.cls-28{letter-spacing:-0.01em;}.cls-29{letter-spacing:-0.01em;}.cls-30{letter-spacing:-0.01em;}.cls-31{letter-spacing:-0.02em;}.cls-32{letter-spacing:-0.01em;}.cls-33{letter-spacing:0em;}.cls-34{letter-spacing:0.02em;}.cls-37{letter-spacing:0em;}.cls-38{letter-spacing:-0.01em;}.cls-39{letter-spacing:-0.02em;}.cls-40{letter-spacing:0em;}.cls-41{letter-spacing:-0.01em;}.cls-42{letter-spacing:-0.01em;}.cls-43{letter-spacing:0.02em;}.cls-44{stroke-width:0.95px;}.cls-45{stroke-width:0.84px;}.cls-47{letter-spacing:0.02em;}.cls-48{fill:none;}.cls-49{letter-spacing:-0.02em;}.cls-50{letter-spacing:-0.01em;}.cls-51{letter-spacing:-0.02em;}.cls-52{stroke-width:0.87px;}.cls-53{font-size:6.97px;}.cls-54{letter-spacing:0.02em;}.cls-55{stroke-width:1.01px;}.cls-57{font-size:14px;}.cls-58{letter-spacing:0.01em;}.cls-59{letter-spacing:0em;}.cls-60{letter-spacing:0.01em;}.cls-61{letter-spacing:0em;}.cls-63{stroke-width:0.93px;}</style></defs><title>工作區域 2</title><rect class="cls-1" width="720" height="405.07"/><rect class="cls-2" y="102.59" width="720" height="54.6"/><rect class="cls-3" y="191.29" width="720" height="59.4"/><rect class="cls-4" y="252" width="720" height="54.6"/><rect class="cls-5" y="306.6" width="720" height="98.47"/><text class="cls-6" transform="translate(15.96 68.05) scale(1.16 1)">physical<tspan class="cls-7"><tspan x="0" y="10.29">e</tspan><tspan class="cls-8" x="4.38" y="10.29">vidence</tspan></tspan></text><text class="cls-6" transform="translate(15.96 124.76) scale(1.16 1)">cus<tspan class="cls-9" x="13.47" y="0">t</tspan><tspan x="16.15" y="0">omer</tspan><tspan x="0" y="10.29">actions</tspan><tspan class="cls-10"><tspan x="0" y="16.47">(p</tspan><tspan class="cls-11" x="4.49" y="16.47">r</tspan><tspan class="cls-12" x="6.18" y="16.47">ope</tspan><tspan class="cls-13" x="14.57" y="16.47">r</tspan><tspan class="cls-12" x="16.43" y="16.47">ty viewer)</tspan></tspan></text><text class="cls-6" transform="translate(15.96 206.71) scale(1.16 1)">f<tspan class="cls-14" x="2.84" y="0">r</tspan><tspan x="5.64" y="0">ontstage</tspan><tspan x="0" y="10.29">actions</tspan><tspan class="cls-15"><tspan x="0" y="17.5">(p</tspan><tspan class="cls-16" x="5.24" y="17.5">r</tspan><tspan x="7.2" y="17.5">ope</tspan><tspan class="cls-17" x="17" y="17.5">r</tspan><tspan x="19.16" y="17.5">ty </tspan><tspan x="0" y="24.71">management </tspan><tspan x="0" y="31.91">company)</tspan></tspan></text><text class="cls-6" transform="translate(15.96 266.06) scale(1.16 1)">backstage<tspan x="0" y="10.29">actions</tspan><tspan class="cls-15"><tspan x="0" y="17.5">(p</tspan><tspan class="cls-16" x="5.24" y="17.5">r</tspan><tspan x="7.2" y="17.5">ope</tspan><tspan class="cls-17" x="17" y="17.5">r</tspan><tspan x="19.16" y="17.5">ty </tspan><tspan x="0" y="24.71">management </tspan><tspan x="0" y="31.91">company)</tspan></tspan></text><text class="cls-6" transform="translate(15.96 327.16) scale(1.16 1)">suppo<tspan class="cls-18" x="23.37" y="0">r</tspan><tspan x="26.46" y="0">t </tspan><tspan x="0" y="10.29">po</tspan><tspan class="cls-19" x="9.56" y="10.29">r</tspan><tspan x="12.36" y="10.29">cess</tspan></text><text class="cls-20" transform="translate(175.63 70.99)">phone/computer</text><text class="cls-20" transform="translate(487.2 70.99)">documents</text><text class="cls-21" transform="translate(222.03 132.03)">→</text><text class="cls-21" transform="translate(290.08 132.03)">→</text><text class="cls-21" transform="translate(351.31 132.46)">→</text><text class="cls-21" transform="translate(409.89 132.46)">→</text><text class="cls-21" transform="translate(469.08 134.17)">→</text><text class="cls-21" transform="translate(528.27 134.17)">→</text><text class="cls-21" transform="translate(584.89 134.17)">→</text><text class="cls-21" transform="translate(643.23 135.03)">→</text><text class="cls-21" transform="translate(222.03 226.1)">→</text><text class="cls-21" transform="translate(290.08 226.1)">→</text><text class="cls-21" transform="translate(351.31 227.18)">→</text><text class="cls-21" transform="translate(405.6 227.18)">→</text><text class="cls-21" transform="translate(464.79 227.18)">→</text><text class="cls-21" transform="translate(524.84 227.18)">→</text><text class="cls-21" transform="translate(583.46 227.18)">→</text><text class="cls-21" transform="translate(641.23 227.18)">→</text><rect class="cls-22" x="193.43" y="78.34" width="3" height="187.72"/><rect class="cls-22" x="261.2" y="142.53" width="3" height="121.95"/><rect class="cls-23" x="324.33" y="75.81" width="3" height="292.43"/><rect class="cls-22" x="385.34" y="145.74" width="3" height="118.84"/><rect class="cls-22" x="443.13" y="144.09" width="3" height="63.21"/><rect class="cls-22" x="502.32" y="74.75" width="3" height="191.31"/><rect class="cls-22" x="559.48" y="92.64" width="3" height="186.66"/><rect class="cls-22" x="617.29" y="144.09" width="3" height="63.21"/><rect class="cls-22" x="676.46" y="52.64" width="3" height="215.85"/><rect class="cls-22" x="328.84" y="92.64" width="171.55" height="3.13"/><rect class="cls-22" x="193.43" y="92.64" width="128.96" height="3.13"/><rect class="cls-22" x="324.22" y="53.2" width="3" height="9.79"/><rect class="cls-22" x="324.22" y="52.64" width="352.24" height="2.96"/><rect class="cls-24" x="170.84" y="114.65" width="51.18" height="29.45" rx="2.43" ry="2.43"/><text class="cls-20" transform="translate(177.65 125.94)">contact <tspan class="cls-25" x="24.44" y="0">t</tspan><tspan x="26.58" y="0">o </tspan><tspan x="0" y="8.24">the company</tspan></text><rect class="cls-22" x="507.11" y="92.64" width="54.61" height="3.13"/><rect class="cls-26" x="300.13" y="114.65" width="51.18" height="29.45" rx="2.43" ry="2.43"/><path class="cls-24" d="M469.08,142a2.38,2.38,0,0,1-2.32,2.43H422.51a2.38,2.38,0,0,1-2.32-2.43V117.42a2.38,2.38,0,0,1,2.32-2.43h44.25a2.38,2.38,0,0,1,2.32,2.43Z"/><path class="cls-24" d="M528.27,142.87a2.38,2.38,0,0,1-2.32,2.43H481.7a2.38,2.38,0,0,1-2.32-2.43V118.28a2.38,2.38,0,0,1,2.32-2.43h44.25a2.38,2.38,0,0,1,2.32,2.43Z"/><path class="cls-24" d="M584.89,143.15a2.36,2.36,0,0,1-2.27,2.43H539.34a2.36,2.36,0,0,1-2.27-2.43V118.56a2.36,2.36,0,0,1,2.27-2.43h43.28a2.36,2.36,0,0,1,2.27,2.43Z"/><path class="cls-24" d="M643.23,142.87a2.38,2.38,0,0,1-2.32,2.43H596.66a2.38,2.38,0,0,1-2.32-2.43V118.28a2.38,2.38,0,0,1,2.32-2.43h44.25a2.38,2.38,0,0,1,2.32,2.43Z"/><path class="cls-24" d="M702.41,143.15a2.38,2.38,0,0,1-2.33,2.43H655.84a2.38,2.38,0,0,1-2.32-2.43V118.56a2.38,2.38,0,0,1,2.32-2.43h44.25a2.38,2.38,0,0,1,2.33,2.43Z"/><text class="cls-27" transform="translate(304.23 123.24)">hous<tspan class="cls-28" x="15.09" y="0">e</tspan><tspan x="18.75" y="0">viewing </tspan><tspan class="cls-29" x="0" y="8.24">b</tspan><tspan x="3.83" y="8.24">y themsel</tspan><tspan class="cls-30" x="33.85" y="8.24">v</tspan><tspan x="37.27" y="8.24">es</tspan><tspan x="0" y="16.47">with PIN</tspan></text><text class="cls-20" transform="translate(426.3 124.22)">ar<tspan class="cls-31" x="5.98" y="0">r</tspan><tspan x="8.16" y="0">ange time</tspan><tspan x="0" y="8.24">for signing </tspan><tspan x="0" y="16.47">cont</tspan><tspan class="cls-31" x="13.35" y="16.47">r</tspan><tspan x="15.53" y="16.47">act</tspan></text><text class="cls-20" transform="translate(484.24 131.72)">sign cont<tspan class="cls-31" x="27.61" y="0">r</tspan><tspan x="29.79" y="0">act</tspan></text><text class="cls-20" transform="translate(657.88 128.29)">closing<tspan x="0" y="8.24">(get p</tspan><tspan class="cls-32" x="17.22" y="8.24">r</tspan><tspan class="cls-33" x="19.46" y="8.24">ope</tspan><tspan class="cls-34" x="30.65" y="8.24">r</tspan><tspan x="33.13" y="8.24">ty)</tspan></text><text class="cls-20" transform="translate(600.34 128.29)">ar<tspan class="cls-31" x="5.98" y="0">r</tspan><tspan x="8.16" y="0">ange time</tspan><tspan x="0" y="8.24">for closing</tspan></text><text class="cls-20" transform="translate(544.28 128.29)">get closing <tspan x="0" y="8.24">inform</tspan></text><rect class="cls-35" x="170.84" y="207.01" width="51.18" height="29.45" rx="2.43" ry="2.43"/><path class="cls-35" d="M290.08,234.32a2.6,2.6,0,0,1-2.74,2.43H235.07a2.6,2.6,0,0,1-2.74-2.43V209.73a2.6,2.6,0,0,1,2.74-2.43h52.27a2.6,2.6,0,0,1,2.74,2.43Z"/><rect class="cls-36" x="300.13" y="207.3" width="51.18" height="29.45" rx="2.43" ry="2.43"/><path class="cls-35" d="M405.6,234.32a2.29,2.29,0,0,1-2.11,2.43H363.39a2.29,2.29,0,0,1-2.11-2.43V209.73a2.29,2.29,0,0,1,2.11-2.43H403.5a2.29,2.29,0,0,1,2.11,2.43Z"/><path class="cls-35" d="M524.84,234.32a2.38,2.38,0,0,1-2.32,2.43H478.27a2.38,2.38,0,0,1-2.32-2.43V209.73a2.38,2.38,0,0,1,2.32-2.43h44.25a2.38,2.38,0,0,1,2.32,2.43Z"/><path class="cls-35" d="M583.46,234.32a2.35,2.35,0,0,1-2.27,2.43H537.91a2.36,2.36,0,0,1-2.27-2.43V209.73a2.36,2.36,0,0,1,2.27-2.43h43.28a2.35,2.35,0,0,1,2.27,2.43Z"/><path class="cls-35" d="M641.23,234.32a2.38,2.38,0,0,1-2.32,2.43H594.66a2.38,2.38,0,0,1-2.32-2.43V209.73a2.38,2.38,0,0,1,2.32-2.43h44.25a2.38,2.38,0,0,1,2.32,2.43Z"/><path class="cls-35" d="M710.78,234.32a2.66,2.66,0,0,1-2.84,2.43H653.79a2.66,2.66,0,0,1-2.84-2.43V209.73a2.66,2.66,0,0,1,2.84-2.43h54.15a2.66,2.66,0,0,1,2.84,2.43Z"/><text class="cls-20" transform="translate(175.63 214.44)">get <tspan x="0" y="8.24">hous</tspan><tspan class="cls-28" x="14.85" y="8.24">e</tspan><tspan class="cls-37" x="18.36" y="8.24">viewing</tspan><tspan class="cls-38" x="0" y="16.47">r</tspan><tspan x="2.25" y="16.47">equest</tspan></text><text class="cls-20" transform="translate(235.52 219.15)">ar<tspan class="cls-39" x="5.98" y="0">r</tspan><tspan class="cls-40" x="8.16" y="0">ange time</tspan><tspan x="0" y="8.24">for house-viewing</tspan></text><text class="cls-27" transform="translate(305.39 219.58)">agent send <tspan x="0" y="8.24">PIN </tspan><tspan class="cls-41" x="12.98" y="8.24">t</tspan><tspan x="15.2" y="8.24">o viewer</tspan></text><text class="cls-20" transform="translate(366.51 219.58)">get contact <tspan x="0" y="8.24">f</tspan><tspan class="cls-32" x="2.27" y="8.24">r</tspan><tspan x="4.51" y="8.24">om client</tspan></text><text class="cls-20" transform="translate(480.81 215.29)">bring <tspan x="0" y="8.24">documents</tspan><tspan class="cls-42" x="0" y="16.47">t</tspan><tspan x="2.14" y="16.47">o meet client</tspan></text><text class="cls-20" transform="translate(540.85 219.58)">inform client<tspan x="0" y="8.24">for closing</tspan></text><text class="cls-20" transform="translate(597.77 219.15)">ar<tspan class="cls-31" x="5.98" y="0">r</tspan><tspan x="8.16" y="0">ange time</tspan><tspan x="0" y="8.24">for closing</tspan></text><text class="cls-20" transform="translate(653.52 219.15)">closing<tspan x="0" y="8.24">(sell/</tspan><tspan class="cls-38" x="15.01" y="8.24">r</tspan><tspan x="17.25" y="8.24">ent p</tspan><tspan class="cls-42" x="32.25" y="8.24">r</tspan><tspan x="34.49" y="8.24">ope</tspan><tspan class="cls-43" x="45.68" y="8.24">r</tspan><tspan x="48.16" y="8.24">ty)</tspan></text><path class="cls-35" d="M464.79,234.32a2.38,2.38,0,0,1-2.32,2.43H418.22a2.38,2.38,0,0,1-2.32-2.43V209.73a2.38,2.38,0,0,1,2.32-2.43h44.25a2.38,2.38,0,0,1,2.32,2.43Z"/><text class="cls-20" transform="translate(422.13 215.29)">ar<tspan class="cls-31" x="5.98" y="0">r</tspan><tspan x="8.16" y="0">ange time</tspan><tspan x="0" y="8.24">for signing </tspan><tspan x="0" y="16.47">cont</tspan><tspan class="cls-31" x="13.35" y="16.47">r</tspan><tspan x="15.53" y="16.47">act</tspan></text><path class="cls-44" d="M234.52,291.6a2.76,2.76,0,0,1-3,2.43h-57a2.75,2.75,0,0,1-3-2.43V267a2.75,2.75,0,0,1,3-2.43h57a2.75,2.75,0,0,1,3,2.43Z"/><path class="cls-45" d="M292.67,291.51a2.37,2.37,0,0,1-2.31,2.43h-44a2.37,2.37,0,0,1-2.31-2.43V266.92a2.37,2.37,0,0,1,2.31-2.43h44a2.37,2.37,0,0,1,2.31,2.43Z"/><rect class="cls-46" x="366.51" y="264.57" width="51.18" height="29.45" rx="2.43" ry="2.43"/><text class="cls-20" transform="translate(174.63 275.46)">get it <tspan class="cls-42" x="16.64" y="0">t</tspan><tspan class="cls-40" x="18.77" y="0">o</tspan><tspan x="0" y="8.24">p</tspan><tspan class="cls-25" x="3.8" y="8.24">r</tspan><tspan class="cls-40" x="6.04" y="8.24">ope</tspan><tspan class="cls-34" x="17.24" y="8.24">r</tspan><tspan class="cls-37" x="19.71" y="8.24">ty manager</tspan></text><text class="cls-20" transform="translate(247.43 279.21)">send an agent</text><text class="cls-20" transform="translate(374.31 277.07)">p<tspan class="cls-38" x="3.8" y="0">r</tspan><tspan x="6.05" y="0">epa</tspan><tspan class="cls-38" x="17.07" y="0">r</tspan><tspan x="19.32" y="0">e for </tspan><tspan x="0" y="8.24">documents</tspan></text><rect class="cls-1" x="370.54" y="111.99" width="32.6" height="32.6" transform="translate(22.59 311.11) rotate(-45)"/><text class="cls-20" transform="translate(373.37 125.94)">decide <tspan class="cls-42" x="21.46" y="0">t</tspan><tspan x="23.6" y="0">o </tspan><tspan x="0" y="8.24">buy/</tspan><tspan class="cls-38" x="13.56" y="8.24">r</tspan><tspan x="15.8" y="8.24">ent</tspan></text><rect class="cls-22" x="127.21" y="68.05" width="3" height="235.38"/><path class="cls-44" d="M160.18,291.6a2.76,2.76,0,0,1-3,2.43h-57a2.75,2.75,0,0,1-3-2.43V267a2.75,2.75,0,0,1,3-2.43h57a2.75,2.75,0,0,1,3,2.43Z"/><text class="cls-20" transform="translate(99.63 273.46)">p<tspan class="cls-25" x="3.8" y="0">r</tspan><tspan class="cls-40" x="6.04" y="0">ope</tspan><tspan class="cls-34" x="17.24" y="0">r</tspan><tspan class="cls-37" x="19.71" y="0">ty manager</tspan><tspan x="0" y="8.24">maintain p</tspan><tspan class="cls-32" x="31.73" y="8.24">r</tspan><tspan x="33.97" y="8.24">ope</tspan><tspan class="cls-47" x="45.16" y="8.24">r</tspan><tspan x="47.64" y="8.24">ties </tspan><tspan class="cls-25"><tspan x="0" y="16.47">r</tspan><tspan class="cls-40" x="2.24" y="16.47">outinely</tspan></tspan></text><rect class="cls-22" x="127.21" y="68.05" width="42.54" height="2.94"/><path class="cls-48" d="M315.13,342.88c0,1.34-1.51,2.43-3.38,2.43H247.4c-1.87,0-3.38-1.09-3.38-2.43V318.29c0-1.34,1.51-2.43,3.38-2.43h64.35c1.86,0,3.38,1.09,3.38,2.43Z"/><text class="cls-27" transform="translate(247.43 324.32)">p<tspan class="cls-49" x="3.86" y="0">r</tspan><tspan x="6.25" y="0">ope</tspan><tspan class="cls-34" x="17.7" y="0">r</tspan><tspan x="20.37" y="0">ty manger</tspan><tspan x="0" y="8.24">g</tspan><tspan class="cls-50" x="3.92" y="8.24">r</tspan><tspan x="6.32" y="8.24">ant pin code </tspan><tspan x="0" y="16.47">access </tspan><tspan class="cls-41" x="23.31" y="16.47">t</tspan><tspan x="25.53" y="16.47">o maintainer</tspan></text><rect class="cls-22" x="229.65" y="68.05" width="38.35" height="2.94"/><text class="cls-27" transform="translate(272.2 70.99)">p<tspan class="cls-51" x="3.86" y="0">r</tspan><tspan x="6.25" y="0">ope</tspan><tspan class="cls-34" x="17.7" y="0">r</tspan><tspan x="20.37" y="0">ty with igloohome sma</tspan><tspan class="cls-34" x="90.12" y="0">r</tspan><tspan x="92.79" y="0">t lock</tspan></text><rect class="cls-52" x="75.73" y="316.56" width="76.34" height="30.05" rx="2.47" ry="2.47"/><text class="cls-53" transform="translate(86.25 329.85)">install igloohome <tspan x="0" y="8.36">sma</tspan><tspan class="cls-54" x="13.35" y="8.36">r</tspan><tspan x="16.06" y="8.36">t lock</tspan></text><rect class="cls-22" x="128.01" y="300.8" width="71.31" height="2.63"/><rect class="cls-22" x="197.1" y="300.8" width="2.21" height="17.13"/><rect class="cls-23" x="233.76" y="329.8" width="10.26" height="2.13"/><path class="cls-55" d="M233.76,342.88c0,1.34-1.51,2.43-3.38,2.43H166c-1.87,0-3.38-1.09-3.38-2.43V318.29c0-1.34,1.51-2.43,3.38-2.43h64.35c1.86,0,3.38,1.09,3.38,2.43Z"/><text class="cls-20" transform="translate(166.06 324.32)">p<tspan class="cls-25" x="3.8" y="0">r</tspan><tspan class="cls-40" x="6.04" y="0">ope</tspan><tspan class="cls-34" x="17.24" y="0">r</tspan><tspan class="cls-37" x="19.71" y="0">ty manager </tspan><tspan x="0" y="8.24">contact cleaners, </tspan><tspan x="0" y="16.47">plumbers, technicians</tspan></text><rect class="cls-23" x="278.45" y="345.31" width="2.24" height="29.75"/><path class="cls-56" d="M246.35,362.29H423.58a2.32,2.32,0,0,1,2.32,2.32v24a2.33,2.33,0,0,1-2.33,2.33H246.35a2.33,2.33,0,0,1-2.33-2.33v-24A2.33,2.33,0,0,1,246.35,362.29Z"/><text class="cls-53" transform="translate(302.2 379.72)">igloohome app/site</text><text class="cls-57" transform="translate(15.96 28.72)">se<tspan class="cls-58" x="14.32" y="0">r</tspan><tspan x="19.15" y="0">vice blueprint </tspan><tspan class="cls-59" x="103.89" y="0">(with igloohome se</tspan><tspan class="cls-60" x="223.79" y="0">r</tspan><tspan class="cls-61" x="229.02" y="0">vice)</tspan></text><path class="cls-24" d="M290.08,141.67a2.6,2.6,0,0,1-2.74,2.43H235.07a2.6,2.6,0,0,1-2.74-2.43V117.08a2.6,2.6,0,0,1,2.74-2.43h52.27a2.6,2.6,0,0,1,2.74,2.43Z"/><text class="cls-20" transform="translate(235.52 125.94)">ar<tspan class="cls-39" x="5.98" y="0">r</tspan><tspan class="cls-40" x="8.16" y="0">ange time</tspan><tspan x="0" y="8.24">for house-viewing</tspan></text><path class="cls-62" d="M358.5,291.6a2.63,2.63,0,0,1-2.79,2.43H302.54a2.63,2.63,0,0,1-2.79-2.43V267a2.63,2.63,0,0,1,2.79-2.43h53.17A2.63,2.63,0,0,1,358.5,267Z"/><text class="cls-27" transform="translate(301.13 277.07)">p<tspan class="cls-49" x="3.86" y="0">r</tspan><tspan x="6.25" y="0">ope</tspan><tspan class="cls-34" x="17.7" y="0">r</tspan><tspan x="20.37" y="0">ty manager</tspan><tspan x="0" y="8.24">send PIN </tspan><tspan class="cls-41" x="29.64" y="8.24">t</tspan><tspan x="31.86" y="8.24">o agent</tspan></text><text class="cls-21" transform="translate(234.52 284.4)">→</text><path class="cls-63" d="M687.23,291.35c0,1.47-.81,2.66-1.8,2.66H546.61c-1,0-1.8-1.19-1.8-2.66v-24.1c0-1.47.8-2.66,1.8-2.66H685.43c1,0,1.8,1.19,1.8,2.66Z"/><text class="cls-20" transform="translate(585.42 281.02)">closing p<tspan class="cls-42" x="26.98" y="0">r</tspan><tspan x="29.22" y="0">ocess</tspan></text><path class="cls-45" d="M527.16,291.6a2.37,2.37,0,0,1-2.31,2.43h-44a2.37,2.37,0,0,1-2.31-2.43V267a2.37,2.37,0,0,1,2.31-2.43h44a2.37,2.37,0,0,1,2.31,2.43Z"/><text class="cls-20" transform="translate(484.24 281.02)"><tspan xml:space="preserve">send  agent</tspan></text></svg>