<svg id="圖層_1" data-name="圖層 1" xmlns="http://www.w3.org/2000/svg" viewBox="0 0 720 405.07"><defs><style>.cls-1{fill:#fff;}.cls-2,.cls-45{fill:#3e3a39;}.cls-3,.cls-30{fill:#efefef;}.cls-35,.cls-4{fill:#b5b5b6;}.cls-41,.cls-42,.cls-43,.cls-44,.cls-46,.cls-5{fill:#595757;}.cls-6{font-size:14px;}.cls-22,.cls-23,.cls-29,.cls-6,.cls-8{fill:#231815;}.cls-22,.cls-23,.cls-6,.cls-8{font-family:Roboto-Light, Roboto;}.cls-7{letter-spacing:0.01em;}.cls-8{font-size:8.58px;}.cls-9{letter-spacing:-0.01em;}.cls-10{letter-spacing:0em;}.cls-11{letter-spacing:-0.01em;}.cls-12{font-size:5.15px;}.cls-13{letter-spacing:-0.01em;}.cls-14{letter-spacing:0em;}.cls-15{letter-spacing:0.02em;}.cls-16{letter-spacing:-0.01em;}.cls-17{font-size:6px;}.cls-18{letter-spacing:-0.01em;}.cls-19{letter-spacing:0.02em;}.cls-20{letter-spacing:0.02em;}.cls-21{letter-spacing:-0.01em;}.cls-22,.cls-23{font-size:6.86px;}.cls-23,.cls-26{letter-spacing:-0.01em;}.cls-24{letter-spacing:-0.01em;}.cls-25{letter-spacing:0em;}.cls-27{letter-spacing:0.02em;}.cls-28{font-size:10.43px;fill:#7a6a56;font-family:AdobeMingStd-Light-B5pc-H, Adobe Ming Std;}.cls-30,.cls-35,.cls-41,.cls-42,.cls-43,.cls-44,.cls-45,.cls-46{stroke:#fff;stroke-miterlimit:10;}.cls-30,.cls-35,.cls-43{stroke-width:0.86px;}.cls-31{letter-spacing:-0.02em;}.cls-32{letter-spacing:-0.01em;}.cls-33{letter-spacing:0em;}.cls-34{letter-spacing:0.02em;}.cls-36{letter-spacing:-0.01em;}.cls-37{letter-spacing:0em;}.cls-38{letter-spacing:-0.01em;}.cls-39{letter-spacing:-0.02em;}.cls-40{letter-spacing:-0.01em;}.cls-41{stroke-width:0.95px;}.cls-42{stroke-width:1.18px;}.cls-44{stroke-width:0.93px;}.cls-45{stroke-width:1.01px;}.cls-46{stroke-width:0.84px;}.cls-47{letter-spacing:0.02em;}</style></defs><title>工作區域 1</title><rect class="cls-1" width="720" height="405.07"/><rect class="cls-2" y="307.17" width="720" height="97.9"/><rect class="cls-3" y="103.45" width="720" height="54.6"/><rect class="cls-4" y="192.15" width="720" height="59.4"/><rect class="cls-5" y="252.86" width="720" height="54.6"/><text class="cls-6" transform="translate(15.96 30.1)">se<tspan class="cls-7" x="14.32" y="0">r</tspan><tspan x="19.15" y="0">vice blueprint</tspan></text><text class="cls-8" transform="translate(15.96 68.91) scale(1.16 1)">physical<tspan class="cls-9"><tspan x="0" y="10.29">e</tspan><tspan class="cls-10" x="4.38" y="10.29">vidence</tspan></tspan></text><text class="cls-8" transform="translate(15.96 125.62) scale(1.16 1)">cus<tspan class="cls-11" x="13.47" y="0">t</tspan><tspan x="16.15" y="0">omer</tspan><tspan x="0" y="10.29">actions</tspan><tspan class="cls-12"><tspan x="0" y="16.47">(p</tspan><tspan class="cls-13" x="4.49" y="16.47">r</tspan><tspan class="cls-14" x="6.18" y="16.47">ope</tspan><tspan class="cls-15" x="14.57" y="16.47">r</tspan><tspan class="cls-14" x="16.43" y="16.47">ty client)</tspan></tspan></text><text class="cls-8" transform="translate(15.96 207.58) scale(1.16 1)">f<tspan class="cls-16" x="2.84" y="0">r</tspan><tspan x="5.64" y="0">ontstage</tspan><tspan x="0" y="10.29">actions</tspan><tspan class="cls-17"><tspan x="0" y="17.5">(p</tspan><tspan class="cls-18" x="5.24" y="17.5">r</tspan><tspan x="7.2" y="17.5">ope</tspan><tspan class="cls-19" x="17" y="17.5">r</tspan><tspan x="19.16" y="17.5">ty </tspan><tspan x="0" y="24.71">management </tspan><tspan x="0" y="31.91">company)</tspan></tspan></text><text class="cls-8" transform="translate(15.96 266.92) scale(1.16 1)">backstage<tspan x="0" y="10.29">actions</tspan><tspan class="cls-17"><tspan x="0" y="17.5">(p</tspan><tspan class="cls-18" x="5.24" y="17.5">r</tspan><tspan x="7.2" y="17.5">ope</tspan><tspan class="cls-19" x="17" y="17.5">r</tspan><tspan x="19.16" y="17.5">ty </tspan><tspan x="0" y="24.71">management </tspan><tspan x="0" y="31.91">company)</tspan></tspan></text><text class="cls-8" transform="translate(15.96 328.03) scale(1.16 1)">suppo<tspan class="cls-20" x="23.37" y="0">r</tspan><tspan x="26.46" y="0">t </tspan><tspan x="0" y="10.29">po</tspan><tspan class="cls-21" x="9.56" y="10.29">r</tspan><tspan x="12.36" y="10.29">cess</tspan></text><text class="cls-22" transform="translate(175.63 71.85)">phone/computer</text><text class="cls-23" transform="translate(281.65 71.85)">k<tspan class="cls-24" x="3.29" y="0">e</tspan><tspan class="cls-25" x="6.8" y="0">y</tspan></text><text class="cls-22" transform="translate(351.31 71.85)">p<tspan class="cls-26" x="3.8" y="0">r</tspan><tspan class="cls-25" x="6.04" y="0">ope</tspan><tspan class="cls-27" x="17.24" y="0">r</tspan><tspan x="19.71" y="0">ty</tspan></text><text class="cls-22" transform="translate(487.2 71.85)">documents</text><text class="cls-28" transform="translate(222.03 132.89)">→</text><text class="cls-28" transform="translate(290.08 132.89)">→</text><text class="cls-28" transform="translate(351.31 133.32)">→</text><text class="cls-28" transform="translate(409.89 133.32)">→</text><text class="cls-28" transform="translate(469.08 135.04)">→</text><text class="cls-28" transform="translate(528.27 135.04)">→</text><text class="cls-28" transform="translate(584.89 135.04)">→</text><text class="cls-28" transform="translate(643.23 135.9)">→</text><text class="cls-28" transform="translate(222.03 226.97)">→</text><text class="cls-28" transform="translate(290.08 226.97)">→</text><text class="cls-28" transform="translate(351.31 228.04)">→</text><text class="cls-28" transform="translate(405.6 228.04)">→</text><text class="cls-28" transform="translate(464.79 228.04)">→</text><text class="cls-28" transform="translate(524.84 228.04)">→</text><text class="cls-28" transform="translate(583.46 228.04)">→</text><text class="cls-28" transform="translate(641.23 228.04)">→</text><rect class="cls-29" x="193.43" y="79.2" width="3" height="187.72"/><rect class="cls-29" x="261.2" y="143.4" width="3" height="121.95"/><rect class="cls-29" x="324.22" y="84.84" width="3" height="182.08"/><rect class="cls-29" x="385.34" y="146.6" width="3" height="118.84"/><rect class="cls-29" x="443.13" y="144.96" width="3" height="63.2"/><rect class="cls-29" x="502.32" y="75.61" width="3" height="191.31"/><rect class="cls-29" x="559.48" y="93.51" width="3" height="186.66"/><rect class="cls-29" x="617.29" y="144.96" width="3" height="63.2"/><rect class="cls-29" x="676.46" y="53.5" width="3" height="215.85"/><rect class="cls-29" x="284.36" y="75.61" width="3" height="9.79"/><rect class="cls-29" x="362.29" y="75.61" width="3" height="9.79"/><rect class="cls-29" x="284.36" y="83.2" width="80.93" height="2.76"/><rect class="cls-29" x="328.84" y="93.51" width="171.55" height="3.13"/><rect class="cls-29" x="193.43" y="93.51" width="128.96" height="3.13"/><rect class="cls-29" x="284.36" y="54.06" width="3" height="9.79"/><rect class="cls-29" x="362.29" y="54.06" width="3" height="9.79"/><rect class="cls-29" x="284.36" y="53.5" width="392.1" height="2.96"/><rect class="cls-30" x="170.84" y="115.51" width="51.18" height="29.45" rx="2.43" ry="2.43"/><text class="cls-22" transform="translate(177.65 126.8)">contact <tspan class="cls-26" x="24.44" y="0">t</tspan><tspan x="26.58" y="0">o </tspan><tspan x="0" y="8.24">the company</tspan></text><rect class="cls-29" x="507.11" y="93.51" width="54.61" height="3.13"/><rect class="cls-30" x="300.13" y="115.51" width="51.18" height="29.45" rx="2.43" ry="2.43"/><path class="cls-30" d="M469.08,142.87a2.38,2.38,0,0,1-2.32,2.43H422.51a2.38,2.38,0,0,1-2.32-2.43V118.28a2.38,2.38,0,0,1,2.32-2.43h44.25a2.38,2.38,0,0,1,2.32,2.43Z"/><path class="cls-30" d="M528.27,143.73a2.38,2.38,0,0,1-2.32,2.43H481.7a2.38,2.38,0,0,1-2.32-2.43V119.14a2.38,2.38,0,0,1,2.32-2.43h44.25a2.38,2.38,0,0,1,2.32,2.43Z"/><path class="cls-30" d="M584.89,144a2.36,2.36,0,0,1-2.27,2.43H539.34a2.36,2.36,0,0,1-2.27-2.43V119.43a2.36,2.36,0,0,1,2.27-2.43h43.28a2.36,2.36,0,0,1,2.27,2.43Z"/><path class="cls-30" d="M643.23,143.73a2.38,2.38,0,0,1-2.32,2.43H596.66a2.38,2.38,0,0,1-2.32-2.43V119.14a2.38,2.38,0,0,1,2.32-2.43h44.25a2.38,2.38,0,0,1,2.32,2.43Z"/><path class="cls-30" d="M702.41,144a2.38,2.38,0,0,1-2.33,2.43H655.84a2.38,2.38,0,0,1-2.32-2.43V119.43a2.38,2.38,0,0,1,2.32-2.43h44.25a2.38,2.38,0,0,1,2.33,2.43Z"/><text class="cls-22" transform="translate(304.23 131.44)">house-viewing</text><text class="cls-22" transform="translate(426.3 125.08)">ar<tspan class="cls-31" x="5.98" y="0">r</tspan><tspan x="8.16" y="0">ange time</tspan><tspan x="0" y="8.24">for signing </tspan><tspan x="0" y="16.47">cont</tspan><tspan class="cls-31" x="13.35" y="16.47">r</tspan><tspan x="15.53" y="16.47">act</tspan></text><text class="cls-22" transform="translate(484.24 132.58)">sign cont<tspan class="cls-31" x="27.61" y="0">r</tspan><tspan x="29.79" y="0">act</tspan></text><text class="cls-22" transform="translate(657.88 129.15)">closing<tspan x="0" y="8.24">(get p</tspan><tspan class="cls-32" x="17.22" y="8.24">r</tspan><tspan class="cls-33" x="19.46" y="8.24">ope</tspan><tspan class="cls-34" x="30.65" y="8.24">r</tspan><tspan x="33.13" y="8.24">ty)</tspan></text><text class="cls-22" transform="translate(600.34 129.15)">ar<tspan class="cls-31" x="5.98" y="0">r</tspan><tspan x="8.16" y="0">ange time</tspan><tspan x="0" y="8.24">for closing</tspan></text><text class="cls-22" transform="translate(544.28 129.15)">get closing <tspan x="0" y="8.24">inform</tspan></text><rect class="cls-35" x="170.84" y="207.87" width="51.18" height="29.45" rx="2.43" ry="2.43"/><path class="cls-35" d="M290.08,235.18a2.6,2.6,0,0,1-2.74,2.43H235.07a2.6,2.6,0,0,1-2.74-2.43V210.59a2.6,2.6,0,0,1,2.74-2.43h52.27a2.6,2.6,0,0,1,2.74,2.43Z"/><rect class="cls-35" x="300.13" y="208.16" width="51.18" height="29.45" rx="2.43" ry="2.43"/><path class="cls-35" d="M405.6,235.18a2.29,2.29,0,0,1-2.11,2.43H363.39a2.29,2.29,0,0,1-2.11-2.43V210.59a2.29,2.29,0,0,1,2.11-2.43H403.5a2.29,2.29,0,0,1,2.11,2.43Z"/><path class="cls-35" d="M524.84,235.18a2.38,2.38,0,0,1-2.32,2.43H478.27a2.38,2.38,0,0,1-2.32-2.43V210.59a2.38,2.38,0,0,1,2.32-2.43h44.25a2.38,2.38,0,0,1,2.32,2.43Z"/><path class="cls-35" d="M583.46,235.18a2.35,2.35,0,0,1-2.27,2.43H537.91a2.36,2.36,0,0,1-2.27-2.43V210.59a2.36,2.36,0,0,1,2.27-2.43h43.28a2.35,2.35,0,0,1,2.27,2.43Z"/><path class="cls-35" d="M641.23,235.18a2.38,2.38,0,0,1-2.32,2.43H594.66a2.38,2.38,0,0,1-2.32-2.43V210.59a2.38,2.38,0,0,1,2.32-2.43h44.25a2.38,2.38,0,0,1,2.32,2.43Z"/><path class="cls-35" d="M710.78,235.18a2.66,2.66,0,0,1-2.84,2.43H653.79a2.66,2.66,0,0,1-2.84-2.43V210.59a2.66,2.66,0,0,1,2.84-2.43h54.15a2.66,2.66,0,0,1,2.84,2.43Z"/><text class="cls-22" transform="translate(175.63 215.3)">get <tspan x="0" y="8.24">hous</tspan><tspan class="cls-36" x="14.85" y="8.24">e</tspan><tspan class="cls-37" x="18.36" y="8.24">viewing</tspan><tspan class="cls-38" x="0" y="16.47">r</tspan><tspan x="2.25" y="16.47">equest</tspan></text><text class="cls-22" transform="translate(235.52 220.01)">ar<tspan class="cls-39" x="5.98" y="0">r</tspan><tspan class="cls-25" x="8.16" y="0">ange time</tspan><tspan x="0" y="8.24">for house-viewing</tspan></text><text class="cls-22" transform="translate(304.23 216.16)">send agent <tspan class="cls-40" x="34.94" y="0">t</tspan><tspan x="37.08" y="0">o</tspan><tspan x="0" y="8.24">house-viewing</tspan><tspan x="0" y="16.47">with client</tspan></text><text class="cls-22" transform="translate(366.51 220.44)">get contact <tspan x="0" y="8.24">f</tspan><tspan class="cls-32" x="2.27" y="8.24">r</tspan><tspan x="4.51" y="8.24">om client</tspan></text><text class="cls-22" transform="translate(480.81 216.16)">bring <tspan x="0" y="8.24">documents</tspan><tspan class="cls-40" x="0" y="16.47">t</tspan><tspan x="2.14" y="16.47">o meet client</tspan></text><text class="cls-22" transform="translate(540.85 220.44)">inform client<tspan x="0" y="8.24">for closing</tspan></text><text class="cls-22" transform="translate(597.77 220.01)">ar<tspan class="cls-31" x="5.98" y="0">r</tspan><tspan x="8.16" y="0">ange time</tspan><tspan x="0" y="8.24">for closing</tspan></text><text class="cls-22" transform="translate(653.52 220.02)">closing<tspan x="0" y="8.24">(sell/</tspan><tspan class="cls-38" x="15.01" y="8.24">r</tspan><tspan x="17.25" y="8.24">ent p</tspan><tspan class="cls-40" x="32.25" y="8.24">r</tspan><tspan x="34.49" y="8.24">ope</tspan><tspan class="cls-27" x="45.68" y="8.24">r</tspan><tspan x="48.16" y="8.24">ty)</tspan></text><path class="cls-35" d="M464.79,235.18a2.38,2.38,0,0,1-2.32,2.43H418.22a2.38,2.38,0,0,1-2.32-2.43V210.59a2.38,2.38,0,0,1,2.32-2.43h44.25a2.38,2.38,0,0,1,2.32,2.43Z"/><text class="cls-22" transform="translate(422.13 216.16)">ar<tspan class="cls-31" x="5.98" y="0">r</tspan><tspan x="8.16" y="0">ange time</tspan><tspan x="0" y="8.24">for signing </tspan><tspan x="0" y="16.47">cont</tspan><tspan class="cls-31" x="13.35" y="16.47">r</tspan><tspan x="15.53" y="16.47">act</tspan></text><path class="cls-41" d="M235.52,292.46a2.75,2.75,0,0,1-3,2.43h-57a2.75,2.75,0,0,1-3-2.43V267.87a2.76,2.76,0,0,1,3-2.43h57a2.76,2.76,0,0,1,3,2.43Z"/><path class="cls-42" d="M345,292.37c0,1.34-2.06,2.43-4.6,2.43H252.65c-2.54,0-4.6-1.09-4.6-2.43V267.78c0-1.34,2.06-2.43,4.6-2.43h87.73c2.54,0,4.6,1.09,4.6,2.43Z"/><rect class="cls-43" x="361.28" y="265.44" width="51.18" height="29.45" rx="2.43" ry="2.43"/><text class="cls-22" transform="translate(175.63 276.32)">get it <tspan class="cls-40" x="16.64" y="0">t</tspan><tspan class="cls-25" x="18.77" y="0">o</tspan><tspan x="0" y="8.24">p</tspan><tspan class="cls-26" x="3.8" y="8.24">r</tspan><tspan class="cls-25" x="6.04" y="8.24">ope</tspan><tspan class="cls-34" x="17.24" y="8.24">r</tspan><tspan class="cls-37" x="19.71" y="8.24">ty manager</tspan></text><text class="cls-22" transform="translate(272.2 281.79)">send an agent</text><text class="cls-22" transform="translate(369.08 277.93)">p<tspan class="cls-38" x="3.8" y="0">r</tspan><tspan x="6.05" y="0">epa</tspan><tspan class="cls-38" x="17.07" y="0">r</tspan><tspan x="19.32" y="0">e for </tspan><tspan x="0" y="8.24">documents</tspan></text><rect class="cls-1" x="370.54" y="112.85" width="32.6" height="32.6" transform="translate(21.98 311.37) rotate(-45)"/><text class="cls-22" transform="translate(373.37 126.8)">decide <tspan class="cls-40" x="21.46" y="0">t</tspan><tspan x="23.6" y="0">o </tspan><tspan x="0" y="8.24">buy/</tspan><tspan class="cls-38" x="13.56" y="8.24">r</tspan><tspan x="15.8" y="8.24">ent</tspan></text><path class="cls-44" d="M686.7,293.84c0,1.47-.81,2.66-1.8,2.66H546.07c-1,0-1.8-1.19-1.8-2.66v-24.1c0-1.47.8-2.66,1.8-2.66H684.9c1,0,1.8,1.19,1.8,2.66Z"/><text class="cls-22" transform="translate(584.89 283.5)">closing p<tspan class="cls-40" x="26.98" y="0">r</tspan><tspan x="29.22" y="0">ocess</tspan></text><rect class="cls-29" x="127.21" y="68.91" width="3" height="247.81"/><path class="cls-41" d="M160.18,292.46a2.75,2.75,0,0,1-3,2.43h-57a2.75,2.75,0,0,1-3-2.43V267.87a2.76,2.76,0,0,1,3-2.43h57a2.76,2.76,0,0,1,3,2.43Z"/><path class="cls-45" d="M168.33,343.74c0,1.34-1.51,2.43-3.38,2.43H100.6c-1.87,0-3.38-1.09-3.38-2.43V319.15c0-1.34,1.51-2.43,3.38-2.43H165c1.86,0,3.38,1.09,3.38,2.43Z"/><rect class="cls-29" x="127.21" y="68.91" width="42.54" height="2.94"/><path class="cls-45" d="M249.7,343.74c0,1.34-1.51,2.43-3.38,2.43H182c-1.87,0-3.38-1.09-3.38-2.43V319.15c0-1.34,1.51-2.43,3.38-2.43h64.35c1.86,0,3.38,1.09,3.38,2.43Z"/><text class="cls-22" transform="translate(181.5 329.03)">g<tspan class="cls-31" x="3.81" y="0">r</tspan><tspan x="5.98" y="0">ant </tspan><tspan class="cls-26" x="17.3" y="0">k</tspan><tspan class="cls-24" x="20.59" y="0">e</tspan><tspan class="cls-25" x="24.1" y="0">ys </tspan><tspan class="cls-40" x="32.5" y="0">t</tspan><tspan class="cls-25" x="34.64" y="0">o cleaners, </tspan><tspan x="0" y="8.24">plumbers, technicians</tspan></text><path class="cls-45" d="M332.07,343.74c0,1.34-1.51,2.43-3.38,2.43H264.34c-1.87,0-3.38-1.09-3.38-2.43V319.15c0-1.34,1.51-2.43,3.38-2.43h64.35c1.86,0,3.38,1.09,3.38,2.43Z"/><text class="cls-22" transform="translate(265.37 325.78)">cleaners, plumbers, <tspan x="0" y="8.24">technicians </tspan><tspan class="cls-38" x="36.02" y="8.24">r</tspan><tspan x="38.27" y="8.24">eturn </tspan><tspan class="cls-26"><tspan x="0" y="16.47">k</tspan><tspan class="cls-24" x="3.29" y="16.47">e</tspan><tspan class="cls-25" x="6.8" y="16.47">ys after finished</tspan></tspan></text><text class="cls-28" transform="translate(168.33 334.93)">→</text><text class="cls-28" transform="translate(249.7 334.93)">→</text><rect class="cls-29" x="229.65" y="68.91" width="47.35" height="2.94"/><rect class="cls-29" x="294.99" y="68.91" width="51.68" height="2.94"/><path class="cls-30" d="M290.08,142.54a2.6,2.6,0,0,1-2.74,2.43H235.07a2.6,2.6,0,0,1-2.74-2.43V117.95a2.6,2.6,0,0,1,2.74-2.43h52.27a2.6,2.6,0,0,1,2.74,2.43Z"/><text class="cls-22" transform="translate(235.52 126.8)">ar<tspan class="cls-39" x="5.98" y="0">r</tspan><tspan class="cls-25" x="8.16" y="0">ange time</tspan><tspan x="0" y="8.24">for house-viewing</tspan></text><text class="cls-28" transform="translate(236.53 286.04)">→</text><path class="cls-46" d="M526.63,294.08a2.37,2.37,0,0,1-2.31,2.43h-44a2.37,2.37,0,0,1-2.31-2.43V269.49a2.37,2.37,0,0,1,2.31-2.43h44a2.37,2.37,0,0,1,2.31,2.43Z"/><text class="cls-22" transform="translate(484.24 283.5)">send agent</text><text class="cls-22" transform="translate(99.63 273.53)">p<tspan class="cls-26" x="3.8" y="0">r</tspan><tspan class="cls-25" x="6.04" y="0">ope</tspan><tspan class="cls-34" x="17.24" y="0">r</tspan><tspan class="cls-37" x="19.71" y="0">ty manager</tspan><tspan x="0" y="8.24">maintain p</tspan><tspan class="cls-32" x="31.73" y="8.24">r</tspan><tspan x="33.97" y="8.24">ope</tspan><tspan class="cls-47" x="45.16" y="8.24">r</tspan><tspan x="47.64" y="8.24">ties </tspan><tspan class="cls-26"><tspan x="0" y="16.47">r</tspan><tspan class="cls-25" x="2.24" y="16.47">outinely</tspan></tspan></text><text class="cls-22" transform="translate(100.89 325.78)">p<tspan class="cls-26" x="3.8" y="0">r</tspan><tspan class="cls-25" x="6.04" y="0">ope</tspan><tspan class="cls-34" x="17.24" y="0">r</tspan><tspan class="cls-37" x="19.71" y="0">ty manager </tspan><tspan x="0" y="8.24">contact cleaners, </tspan><tspan x="0" y="16.47">plumbers, technicians</tspan></text></svg>