<?xml version="1.0" encoding="utf-8"?>
<!-- Generator: Adobe Illustrator 21.0.2, SVG Export Plug-In . SVG Version: 6.00 Build 0)  -->
<svg version="1.1" id="圖層_1" xmlns="http://www.w3.org/2000/svg" xmlns:xlink="http://www.w3.org/1999/xlink" x="0px" y="0px"
	 viewBox="0 0 1920 1080" style="enable-background:new 0 0 1920 1080;" xml:space="preserve">
<style type="text/css">
	.st0{fill:#1CB57B;}
</style>
<g>
	<path class="st0" d="M903,405c0,137-111,248-248,248S407,542,407,405s111-248,248-248S903,268,903,405z M626.3,536.3l184-184
		c6.2-6.2,6.2-16.4,0-22.6l-22.6-22.6c-6.2-6.2-16.4-6.2-22.6,0L615,457.1l-70.1-70.1c-6.2-6.2-16.4-6.2-22.6,0l-22.6,22.6
		c-6.2,6.2-6.2,16.4,0,22.6l104,104C609.9,542.6,620.1,542.6,626.3,536.3L626.3,536.3z"/>
</g>
</svg>
